# xmcd CD database file
#
# Track frame offsets:
#	150
#	21815
#	40277
#	60927
#	85830
#	104782
#	125962
#	147085
#	168162
#	192997
#	211230
#	235217
#	253900
#	271395
#	290207
#	310960
#
# Disc length: 4384 seconds
#
# Revision: 19
# Processed by: cddbd v1.5.2PL0 Copyright (c) Steve Scherf et al.
# Submitted via: CDex 1.51
#
DISCID=f4111e10
DTITLE=Celine Dion 席琳狄翁 - All The Way... A Decade Of Song 天長地久：世紀情歌精選
DYEAR=1999
DGENRE=Pop
TTITLE0=The Power Of Love 愛的力量
TTITLE1=Beauty And the Beast (Duet with Peabo Bryson) 美女與野獸
TTITLE2=Because You Loved Me (Theme from 'Up Close and Personal') 因為你愛過我
TTITLE3=It's All Coming Back To Me Now 重新擁有
TTITLE4=Immortality 不朽
TTITLE5=To Love You More 愛不完
TTITLE6=My Heart WIll Go On (Love Theme from 'Titanic') 愛無止盡
TTITLE7=Be The Man 成為愛人
TTITLE8=I'm Your Angel (Duet with R. Kelly) 你的天使
TTITLE9=That's The Way It Is 愛的方式
TTITLE10=If Walls Could Talk 以牆述情
TTITLE11=The First Time Ever I Saw Your Face 一見鍾情
TTITLE12=All The Way (Duet with Frank Sinatra) 天長地久
TTITLE13=Then You Look At Me 深情凝視
TTITLE14=I Want You To Need Me 要你渴望我
TTITLE15=Live For The One I Love 為愛而活
EXTD=YEAR: 1999
EXTT0=
EXTT1=
EXTT2=
EXTT3=
EXTT4=
EXTT5=
EXTT6=
EXTT7=
EXTT8=
EXTT9=
EXTT10=
EXTT11=
EXTT12=
EXTT13=
EXTT14=
EXTT15=
PLAYORDER=
